<svg width="78" height="78" viewBox="0 0 78 78" fill="none" xmlns="http://www.w3.org/2000/svg">
<rect x="0.541016" width="77" height="78" rx="20" fill="black"/>
<path fill-rule="evenodd" clip-rule="evenodd" d="M27.8876 17.9336C22.562 17.9336 18.2449 22.2615 18.2449 27.6002V62.3999C18.2449 67.7386 22.562 72.0665 27.8876 72.0665H62.6012C67.9267 72.0665 72.2439 67.7386 72.2439 62.3999V27.6002C72.2439 22.2615 67.9267 17.9336 62.6012 17.9336H27.8876ZM51.0194 25.1571L61.9232 36.0877C62.0676 36.2328 62.1824 36.4051 62.2605 36.5948C62.3388 36.7842 62.3789 36.9874 62.3787 37.1925V62.177C62.3787 63.0052 62.0504 63.7996 61.4663 64.3852C60.8819 64.9708 60.0897 65.2999 59.2633 65.2999H31.2255C30.3991 65.2999 29.6069 64.9708 29.0225 64.3852C28.4384 63.7996 28.1101 63.0052 28.1101 62.177V27.8233C28.1101 26.9951 28.4384 26.2007 29.0225 25.6151C29.6069 25.0293 30.3991 24.7003 31.2255 24.7003H49.9174C50.1221 24.7001 50.3246 24.7404 50.5137 24.8188C50.7027 24.8971 50.8748 25.0121 51.0194 25.1571ZM42.0112 53.7713C41.9329 53.5818 41.8182 53.4096 41.6735 53.2644L38.1005 49.6847L41.6735 46.1049C41.9657 45.8118 42.13 45.4146 42.13 45C42.13 44.5857 41.9657 44.1884 41.6735 43.8954C41.3812 43.6023 40.9848 43.4377 40.5714 43.4377C40.1581 43.4377 39.7616 43.6023 39.4694 43.8954L34.7964 48.58C34.6515 48.725 34.5366 48.8972 34.4583 49.0867C34.3798 49.2764 34.3395 49.4795 34.3395 49.6847C34.3395 49.89 34.3798 50.0932 34.4583 50.2826C34.5366 50.4723 34.6515 50.6444 34.7964 50.7896L39.4694 55.474C39.614 55.6192 39.7859 55.7342 39.9751 55.8127C40.1641 55.8912 40.3667 55.9316 40.5714 55.9316C40.776 55.9316 40.9787 55.8912 41.1679 55.8127C41.3569 55.7342 41.5287 55.6192 41.6735 55.474C41.8182 55.329 41.9329 55.1567 42.0112 54.9673C42.0897 54.7776 42.13 54.5744 42.13 54.3693C42.13 54.1642 42.0897 53.961 42.0112 53.7713ZM51.0194 55.474L55.6924 50.7896C55.8373 50.6444 55.9522 50.4723 56.0305 50.2826C56.109 50.0932 56.1493 49.89 56.1493 49.6847C56.1493 49.4795 56.109 49.2764 56.0305 49.0867C55.9522 48.8972 55.8373 48.725 55.6924 48.58L51.0194 43.8954C50.7272 43.6023 50.3307 43.4377 49.9174 43.4377C49.504 43.4377 49.1076 43.6023 48.8153 43.8954C48.5231 44.1884 48.3588 44.5857 48.3588 45C48.3588 45.4146 48.5231 45.8118 48.8153 46.1049L52.3883 49.6847L48.8153 53.2644C48.5231 53.5575 48.3588 53.955 48.3588 54.3693C48.3588 54.7836 48.5231 55.1811 48.8153 55.474C49.1076 55.7671 49.504 55.9316 49.9174 55.9316C50.3307 55.9316 50.7272 55.7671 51.0194 55.474Z" fill="#2EC4B6"/>
<path fill-rule="evenodd" clip-rule="evenodd" d="M21.8885 11.9336C16.563 11.9336 12.2458 16.2615 12.2458 21.6001V56.3998C12.2458 61.7386 16.563 66.0664 21.8885 66.0664H56.6022C61.9277 66.0664 66.2449 61.7386 66.2449 56.3998V21.6001C66.2449 16.2615 61.9277 11.9336 56.6022 11.9336H21.8885ZM45.0204 19.157L55.9241 30.0877C56.0686 30.2329 56.1833 30.4052 56.2614 30.5946C56.3397 30.7843 56.3799 30.9873 56.3797 31.1924V56.1769C56.3797 57.0051 56.0514 57.7995 55.4673 58.3853C54.8829 58.9709 54.0907 59.3 53.2643 59.3H25.2265C24.4001 59.3 23.6078 58.9709 23.0235 58.3853C22.4393 57.7995 22.1111 57.0051 22.1111 56.1769V21.8234C22.1111 20.9951 22.4393 20.2007 23.0235 19.615C23.6078 19.0293 24.4001 18.7003 25.2265 18.7003H43.9184C44.123 18.7001 44.3255 18.7404 44.5147 18.8188C44.7037 18.8971 44.8757 19.0121 45.0204 19.157ZM36.0122 47.7714C35.9339 47.5817 35.8191 47.4095 35.6745 47.2645L32.1015 43.6847L35.6745 40.1048C35.9667 39.8119 36.131 39.4144 36.131 39.0001C36.131 38.5858 35.9667 38.1883 35.6745 37.8954C35.3821 37.6023 34.9858 37.4378 34.5723 37.4378C34.1591 37.4378 33.7625 37.6023 33.4704 37.8954L28.7973 42.5799C28.6525 42.7249 28.5376 42.8971 28.4593 43.0868C28.3808 43.2762 28.3405 43.4794 28.3405 43.6847C28.3405 43.8899 28.3808 44.0931 28.4593 44.2827C28.5376 44.4722 28.6525 44.6444 28.7973 44.7894L33.4704 49.4741C33.615 49.6191 33.7868 49.7343 33.976 49.8128C34.165 49.8913 34.3677 49.9317 34.5723 49.9317C34.777 49.9317 34.9796 49.8913 35.1688 49.8128C35.3578 49.7343 35.5297 49.6191 35.6745 49.4741C35.8191 49.3289 35.9339 49.1568 36.0122 48.9671C36.0907 48.7777 36.131 48.5745 36.131 48.3692C36.131 48.1641 36.0907 47.9609 36.0122 47.7714ZM45.0204 49.4741L49.6934 44.7894C49.8383 44.6444 49.9532 44.4722 50.0315 44.2827C50.11 44.0931 50.1503 43.8899 50.1503 43.6847C50.1503 43.4794 50.11 43.2762 50.0315 43.0868C49.9532 42.8971 49.8383 42.7249 49.6934 42.5799L45.0204 37.8954C44.7282 37.6023 44.3317 37.4378 43.9184 37.4378C43.5049 37.4378 43.1086 37.6023 42.8163 37.8954C42.5241 38.1883 42.3598 38.5858 42.3598 39.0001C42.3598 39.4144 42.5241 39.8119 42.8163 40.1048L46.3893 43.6847L42.8163 47.2645C42.5241 47.5576 42.3598 47.9549 42.3598 48.3692C42.3598 48.7837 42.5241 49.181 42.8163 49.4741C43.1086 49.767 43.5049 49.9317 43.9184 49.9317C44.3317 49.9317 44.7282 49.767 45.0204 49.4741Z" fill="#FF6B6B"/>
<path fill-rule="evenodd" clip-rule="evenodd" d="M15.8895 5.93359C10.564 5.93359 6.24683 10.2615 6.24683 15.6002V50.3998C6.24683 55.7386 10.564 60.0664 15.8895 60.0664H50.6032C55.9287 60.0664 60.2459 55.7386 60.2459 50.3998V15.6002C60.2459 10.2615 55.9287 5.93359 50.6032 5.93359H15.8895ZM39.0214 13.157L49.9251 24.0877C50.0696 24.2329 50.1843 24.4052 50.2624 24.5946C50.3407 24.7843 50.3808 24.9873 50.3806 25.1924V50.1769C50.3806 51.0051 50.0524 51.7995 49.4682 52.3853C48.8839 52.9709 48.0917 53.3 47.2653 53.3H19.2274C18.4011 53.3 17.6088 52.9709 17.0245 52.3853C16.4403 51.7995 16.1121 51.0051 16.1121 50.1769V15.8233C16.1121 14.9951 16.4403 14.2007 17.0245 13.615C17.6088 13.0293 18.4011 12.7003 19.2274 12.7003H37.9194C38.124 12.7001 38.3265 12.7404 38.5157 12.8188C38.7047 12.8971 38.8767 13.0121 39.0214 13.157ZM30.0132 41.7714C29.9349 41.5817 29.8201 41.4095 29.6755 41.2645L26.1025 37.6847L29.6755 34.1048C29.9676 33.8119 30.132 33.4144 30.132 33.0001C30.132 32.5858 29.9676 32.1883 29.6755 31.8952C29.3831 31.6023 28.9868 31.4378 28.5733 31.4378C28.16 31.4378 27.7635 31.6023 27.4713 31.8952L22.7983 36.5799C22.6535 36.7249 22.5385 36.8971 22.4602 37.0868C22.3817 37.2762 22.3414 37.4794 22.3414 37.6847C22.3414 37.8899 22.3817 38.0931 22.4602 38.2827C22.5385 38.4722 22.6535 38.6444 22.7983 38.7894L27.4713 43.4741C27.616 43.6191 27.7878 43.7343 27.977 43.8128C28.166 43.8913 28.3687 43.9317 28.5733 43.9317C28.7779 43.9317 28.9806 43.8913 29.1698 43.8128C29.3588 43.7343 29.5306 43.6191 29.6755 43.4741C29.8201 43.3289 29.9349 43.1568 30.0132 42.9671C30.0917 42.7777 30.132 42.5745 30.132 42.3692C30.132 42.1641 30.0917 41.9609 30.0132 41.7714ZM39.0214 43.4741L43.6944 38.7894C43.8392 38.6444 43.9542 38.4722 44.0325 38.2827C44.111 38.0931 44.1513 37.8899 44.1513 37.6847C44.1513 37.4794 44.111 37.2762 44.0325 37.0868C43.9542 36.8971 43.8392 36.7249 43.6944 36.5799L39.0214 31.8952C38.7292 31.6023 38.3327 31.4378 37.9194 31.4378C37.5059 31.4378 37.1096 31.6023 36.8172 31.8952C36.5251 32.1883 36.3607 32.5858 36.3607 33.0001C36.3607 33.4144 36.5251 33.8119 36.8172 34.1048L40.3902 37.6847L36.8172 41.2645C36.5251 41.5576 36.3607 41.9549 36.3607 42.3692C36.3607 42.7837 36.5251 43.181 36.8172 43.4741C37.1096 43.767 37.5059 43.9317 37.9194 43.9317C38.3327 43.9317 38.7292 43.767 39.0214 43.4741Z" fill="#27ACFF"/>
</svg>
