<svg width="61" height="62" viewBox="0 0 61 62" fill="none" xmlns="http://www.w3.org/2000/svg">
<path d="M30.2087 27.0888C32.2687 27.0888 33.9487 28.7688 33.9487 30.8688C33.9487 32.8688 32.2687 34.5688 30.2087 34.5688C28.1487 34.5688 26.4687 32.8688 26.4687 30.8688C26.4687 28.7688 28.1487 27.0888 30.2087 27.0888ZM20.9487 46.8688C22.2087 47.6288 24.9687 46.4688 28.1487 43.4688C27.1087 42.2888 26.0887 41.0088 25.1287 39.6688C23.5172 39.5135 21.915 39.2731 20.3287 38.9488C19.3087 43.2288 19.6887 46.1688 20.9487 46.8688ZM22.3687 35.3888L21.7887 34.3688C21.5687 34.9488 21.3487 35.5288 21.2087 36.0888C21.7487 36.2088 22.3487 36.3088 22.9687 36.4088L22.3687 35.3888ZM35.4487 33.8688L37.0687 30.8688L35.4487 27.8688C34.8487 26.8088 34.2087 25.8688 33.6287 24.9288C32.5487 24.8688 31.4087 24.8688 30.2087 24.8688C29.0087 24.8688 27.8687 24.8688 26.7887 24.9288C26.2087 25.8688 25.5687 26.8088 24.9687 27.8688L23.3487 30.8688L24.9687 33.8688C25.5687 34.9288 26.2087 35.8688 26.7887 36.8088C27.8687 36.8688 29.0087 36.8688 30.2087 36.8688C31.4087 36.8688 32.5487 36.8688 33.6287 36.8088C34.2087 35.8688 34.8487 34.9288 35.4487 33.8688ZM30.2087 20.4288C29.8287 20.8688 29.4287 21.3288 29.0287 21.8688H31.3887C30.9887 21.3288 30.5887 20.8688 30.2087 20.4288ZM30.2087 41.3088C30.5887 40.8688 30.9887 40.4088 31.3887 39.8688H29.0287C29.4287 40.4088 29.8287 40.8688 30.2087 41.3088ZM39.4487 14.8688C38.2087 14.1088 35.4487 15.2688 32.2687 18.2688C33.3087 19.4488 34.3287 20.7288 35.2887 22.0688C36.9287 22.2288 38.5487 22.4688 40.0887 22.7888C41.1087 18.5088 40.7287 15.5688 39.4487 14.8688ZM38.0487 26.3488L38.6287 27.3688C38.8487 26.7888 39.0687 26.2088 39.2087 25.6488C38.6687 25.5288 38.0687 25.4288 37.4487 25.3288L38.0487 26.3488ZM40.9487 12.2488C43.8887 13.9288 44.2087 18.3488 42.9687 23.5088C48.0487 25.0088 51.7087 27.4888 51.7087 30.8688C51.7087 34.2488 48.0487 36.7288 42.9687 38.2288C44.2087 43.3888 43.8887 47.8088 40.9487 49.4888C38.0287 51.1688 34.0487 49.2488 30.2087 45.5888C26.3687 49.2488 22.3887 51.1688 19.4487 49.4888C16.5287 47.8088 16.2087 43.3888 17.4487 38.2288C12.3687 36.7288 8.70874 34.2488 8.70874 30.8688C8.70874 27.4888 12.3687 25.0088 17.4487 23.5088C16.2087 18.3488 16.5287 13.9288 19.4487 12.2488C22.3887 10.5688 26.3687 12.4888 30.2087 16.1488C34.0487 12.4888 38.0287 10.5688 40.9487 12.2488ZM40.3687 30.8688C41.0487 32.3688 41.6487 33.8688 42.1487 35.3888C46.3487 34.1288 48.7087 32.3288 48.7087 30.8688C48.7087 29.4088 46.3487 27.6088 42.1487 26.3488C41.6487 27.8688 41.0487 29.3688 40.3687 30.8688ZM20.0487 30.8688C19.3687 29.3688 18.7687 27.8688 18.2687 26.3488C14.0687 27.6088 11.7087 29.4088 11.7087 30.8688C11.7087 32.3288 14.0687 34.1288 18.2687 35.3888C18.7687 33.8688 19.3687 32.3688 20.0487 30.8688ZM38.0487 35.3888L37.4487 36.4088C38.0687 36.3088 38.6687 36.2088 39.2087 36.0888C39.0687 35.5288 38.8487 34.9488 38.6287 34.3688L38.0487 35.3888ZM32.2687 43.4688C35.4487 46.4688 38.2087 47.6288 39.4487 46.8688C40.7287 46.1688 41.1087 43.2288 40.0887 38.9488C38.5487 39.2688 36.9287 39.5088 35.2887 39.6688C34.3287 41.0088 33.3087 42.2888 32.2687 43.4688ZM22.3687 26.3488L22.9687 25.3288C22.3487 25.4288 21.7487 25.5288 21.2087 25.6488C21.3487 26.2088 21.5687 26.7888 21.7887 27.3688L22.3687 26.3488ZM28.1487 18.2688C24.9687 15.2688 22.2087 14.1088 20.9487 14.8688C19.6887 15.5688 19.3087 18.5088 20.3287 22.7888C21.915 22.4645 23.5172 22.2242 25.1287 22.0688C26.0887 20.7288 27.1087 19.4488 28.1487 18.2688Z" fill="#45ACD9"/>
</svg>
