<svg width="61" height="61" viewBox="0 0 61 61" fill="none" xmlns="http://www.w3.org/2000/svg">
<path d="M53.7305 44.9329L39.8825 20.2609C39.6425 20.0689 38.9225 18.7009 37.4825 18.7009C36.8825 18.7009 36.0425 18.9409 35.1785 20.2609L33.4025 23.0929L28.5545 14.4289C28.4345 14.1889 27.5945 12.8689 26.1545 12.8689C25.5545 12.8689 24.5945 13.1089 23.8745 14.4289L6.64252 44.8129C6.52252 45.0529 5.80252 46.4689 6.52252 47.6689C6.76252 48.2689 7.48252 48.8689 9.06652 48.8689H51.4505C51.6905 48.8689 53.2505 48.8689 53.9705 47.6689C54.2105 47.0929 54.4505 46.1329 53.7305 44.9329ZM20.8505 44.8129L20.4905 46.1329H9.18652L26.2745 16.0849L31.7945 25.9969L20.8505 44.8129ZM23.5145 46.1329L33.3785 28.8529L43.4105 46.1329H23.5145ZM46.3865 46.1329L45.9065 44.8129L35.0105 25.9729L37.4825 21.8209L51.2105 46.1329H46.3865Z" fill="url(#paint0_linear_9_4247)"/>
<defs>
<linearGradient id="paint0_linear_9_4247" x1="22.1125" y1="16.96" x2="52.8263" y2="48.4243" gradientUnits="userSpaceOnUse">
<stop stop-color="#40D256"/>
<stop offset="1" stop-color="#216C2C"/>
</linearGradient>
</defs>
</svg>
