<svg width="61" height="61" viewBox="0 0 61 61" fill="none" xmlns="http://www.w3.org/2000/svg">
<path fill-rule="evenodd" clip-rule="evenodd" d="M10.2087 30.8651C10.2092 27.4142 11.1025 24.0221 12.8019 21.0187C14.5013 18.0152 16.9489 15.5026 19.9068 13.725C22.8647 11.9475 26.2322 10.9655 29.6819 10.8746C33.1316 10.7837 36.5461 11.587 39.5935 13.2063C42.6409 14.8256 45.2175 17.2058 47.0727 20.1156C48.9279 23.0254 49.9987 26.3657 50.1808 29.8118C50.363 33.2579 49.6504 36.6925 48.1124 39.7817C46.5743 42.8709 44.2631 45.5095 41.4034 47.4411L23.2914 22.0918C23.127 21.863 22.8943 21.6922 22.6268 21.6039C22.3592 21.5156 22.0706 21.5142 21.8023 21.6001C21.5339 21.686 21.2997 21.8547 21.1332 22.082C20.9667 22.3092 20.8764 22.5834 20.8754 22.8651V42.8651H23.5421V27.0251L39.0887 48.7905C36.0391 50.3016 32.6544 51.0095 29.2548 50.8472C25.8552 50.6848 22.5533 49.6576 19.6616 47.8628C16.7698 46.0679 14.384 43.5648 12.7298 40.5904C11.0757 37.616 10.2079 34.2686 10.2087 30.8651ZM36.8754 37.5318V21.5318H39.5421V37.5318H36.8754Z" fill="black"/>
</svg>
